<svg width="64" height="64" viewBox="0 0 64 64" fill="none" xmlns="http://www.w3.org/2000/svg">
  <!-- Background Circle -->
  <circle cx="32" cy="32" r="30" fill="#3b82f6" stroke="#2563eb" stroke-width="2"/>
  
  <!-- Book Icon -->
  <rect x="18" y="20" width="16" height="20" rx="2" fill="#ffffff" stroke="#dbeafe" stroke-width="1"/>
  <rect x="20" y="22" width="12" height="1" fill="#3b82f6"/>
  <rect x="20" y="25" width="10" height="1" fill="#3b82f6"/>
  <rect x="20" y="28" width="8" height="1" fill="#3b82f6"/>
  <rect x="20" y="31" width="6" height="1" fill="#3b82f6"/>
  
  <!-- Student Cap -->
  <path d="M38 16 L48 20 L38 24 L28 20 L38 16 Z" fill="#ffffff"/>
  <rect x="46" y="20" width="4" height="8" rx="1" fill="#ffffff"/>
  <circle cx="48" cy="29" r="1" fill="#ffffff"/>
  
  <!-- Arabic Text Element -->
  <circle cx="44" cy="40" r="8" fill="#ffffff" opacity="0.2"/>
  <path d="M40 38 Q44 36 48 38 Q46 42 44 40 Q42 42 40 38 Z" fill="#ffffff"/>
  
  <!-- Decorative Elements -->
  <circle cx="15" cy="15" r="2" fill="#ffffff" opacity="0.3"/>
  <circle cx="49" cy="49" r="2" fill="#ffffff" opacity="0.3"/>
  <circle cx="15" cy="49" r="1.5" fill="#ffffff" opacity="0.4"/>
  <circle cx="49" cy="15" r="1.5" fill="#ffffff" opacity="0.4"/>
</svg>
